<svg xmlns="http://www.w3.org/2000/svg" version="1.0" width="400.000000pt" height="400.000000pt" viewBox="0 0 400.000000 400.000000" preserveAspectRatio="xMidYMid meet">

<g transform="translate(0.000000,400.000000) scale(0.100000,-0.100000)" fill="#ffffff" stroke="none">
<path d="M3030 3668 c-191 -41 -244 -59 -351 -124 -118 -71 -149 -97 -552 -475 -246 -231 -472 -459 -513 -517 -9 -13 -17 -55 -20 -104 -10 -156 18 -122 -296 -365 -155 -120 -294 -229 -310 -243 -54 -49 -50 -63 66 -210 58 -74 104 -135 103 -136 -1 -2 -34 13 -72 32 -39 18 -76 34 -82 34 -26 0 -9 -289 23 -399 9 -30 42 -110 75 -177 32 -67 59 -128 59 -135 0 -7 -12 -32 -26 -56 -49 -85 -66 -150 -71 -283 -6 -148 2 -180 45 -180 16 0 84 27 152 61 138 69 166 99 189 204 7 31 18 58 24 60 7 2 100 8 207 14 279 15 370 44 370 118 0 9 -27 64 -60 123 -33 59 -60 110 -60 114 0 4 104 6 230 5 190 -2 233 0 244 12 8 8 106 151 218 319 190 282 206 311 226 385 11 44 43 167 71 273 l51 194 115 198 c64 109 120 213 125 230 17 59 -25 108 -140 165 l-54 28 97 48 97 49 0 359 c0 198 -3 366 -6 375 -7 18 -97 21 -174 4z m92 -395 c-2 -180 -5 -329 -7 -331 -1 -2 -72 -3 -156 -3 -160 0 -173 4 -163 46 6 26 12 76 19 150 l6 60 -26 -30 c-69 -82 -615 -880 -615 -901 0 -3 -24 -40 -53 -82 -29 -43 -65 -101 -81 -130 l-28 -53 142 71 c160 80 263 117 433 155 125 27 284 51 292 43 9 -8 -64 -256 -116 -396 -95 -258 -261 -574 -359 -685 l-42 -47 -354 0 c-302 0 -354 2 -354 14 0 8 23 88 50 177 28 89 50 164 50 167 0 7 -144 -177 -333 -425 -89 -117 -165 -212 -169 -213 -7 0 -10 8 -118 325 -44 127 -75 231 -70 233 9 3 41 -8 288 -101 50 -19 92 -33 92 -30 0 6 -196 226 -333 372 -53 58 -97 110 -96 115 0 12 294 230 409 305 41 26 108 69 148 95 40 26 77 57 81 69 5 12 11 71 15 132 4 60 13 121 19 135 7 14 72 81 145 149 73 68 174 169 225 224 307 337 465 473 690 592 85 46 290 119 343 123 l29 2 -3 -327z m-286 -488 c128 -18 274 -56 274 -69 -1 -6 -34 -92 -73 -191 l-73 -180 -240 -3 c-132 -1 -271 1 -308 5 l-69 8 122 163 c133 176 227 282 252 282 9 0 60 -7 115 -15z m-1102 -1756 c73 -20 146 -110 171 -210 8 -31 3 -33 -132 -49 -100 -11 -276 1 -300 21 -19 17 -16 49 12 105 31 62 81 111 131 129 48 17 68 18 118 4z" fill="#ffffff"/>
</g>
</svg>